<svg width="131" height="131" viewBox="0 0 131 131" fill="none" xmlns="http://www.w3.org/2000/svg">
<g clip-path="url(#clip0_165_46)">
<g filter="url(#filter0_d_165_46)">
<path d="M63.7643 55.1189C63.7643 55.1189 63.9491 46.9559 62.2344 37.1193L65.6022 36.2773C65.6022 36.2773 67.3375 52.9421 66.7214 56.9363L63.7643 55.1086V55.1189Z" fill="url(#paint0_linear_165_46)"/>
<path d="M66.1472 57.5112C66.4553 57.1211 66.5785 56.6077 66.445 56.1045C65.0896 50.9501 58.5901 32.7554 34.6968 35.2505C33.7624 35.3429 33.095 36.1952 33.2387 37.1193C34.2347 43.7934 39.5227 67.8407 63.2106 58.959C64.2374 61.6492 65.6236 65.8385 65.1102 67.7894C65.0794 67.892 65.0999 67.9844 65.1512 68.0769C65.4182 68.467 67.441 68.4157 67.8004 68.0461C67.8722 67.9742 67.9236 67.8715 67.9236 67.7688C67.9133 66.7728 67.749 61.3206 66.1472 57.5112Z" fill="url(#paint1_linear_165_46)"/>
<path d="M63.3439 55.4987C64.9046 50.4058 72.1435 32.4884 95.9238 35.9589C96.8479 36.0924 97.4845 36.9652 97.31 37.879C96.006 44.7174 89.3832 69.8429 64.2064 57.4393C63.4877 57.0799 63.1078 56.2687 63.3439 55.4987Z" fill="url(#paint2_linear_165_46)"/>
<g opacity="0.17">
<path d="M58.754 54.9954C58.5281 54.9954 58.3124 54.8928 58.1584 54.7079C50.1392 44.5017 40.5798 42.1812 40.4772 42.1606C40.0665 42.0682 39.82 41.6575 39.9124 41.257C40.0048 40.8566 40.4156 40.5999 40.816 40.6923C41.2267 40.7847 50.9709 43.1361 59.3392 53.7838C59.5959 54.1124 59.5446 54.5847 59.216 54.8414C59.0825 54.9544 58.9182 55.0057 58.754 55.0057V54.9954Z" fill="#3E4D22"/>
</g>
<g opacity="0.17">
<path d="M69.1554 55.7142C69.0528 55.6731 68.9501 55.6115 68.8679 55.5191C68.5804 55.2111 68.601 54.7387 68.909 54.4512C69.3711 54.0302 80.2755 44.0088 90.7077 39.8709C91.0979 39.7169 91.5291 39.9119 91.6831 40.2919C91.8371 40.682 91.642 41.1133 91.2621 41.2673C81.097 45.2923 70.0385 55.4472 69.9255 55.5499C69.7099 55.7552 69.4019 55.7963 69.1452 55.7039L69.1554 55.7142Z" fill="#3E4D22"/>
</g>
<path d="M50.1697 10.8951C51.2273 10.1969 52.6032 10.2482 53.8662 10.3201C54.5541 10.3612 55.355 10.4741 55.6733 11.0799C56.2586 10.1866 56.5769 9.13928 57.193 8.26652C60.1398 4.24151 66.2081 5.97678 68.0872 10.1866C71.0751 7.13705 77.0613 8.08169 78.5501 12.1991C78.7041 12.846 78.5706 13.5339 78.4063 14.1808C77.3693 18.1955 74.9461 21.8304 71.6604 24.346C66.2903 28.4429 58.1684 29.7469 52.2952 25.9991C50.026 24.4897 47.7671 21.5326 47.572 18.6987C47.4077 16.4295 48.1675 12.2094 50.18 10.8848L50.1697 10.8951Z" fill="url(#paint3_linear_165_46)"/>
<path d="M66.2184 36.534C66.3519 37.4273 67.2452 37.9304 68.0974 38.0331C70.0175 38.2692 71.7938 37.0371 73.2416 35.7434C76.6403 32.7041 79.5255 28.7715 80.1108 24.2536C80.6242 19.8282 79.0121 13.688 83.5095 10.8951C82.6983 9.82728 81.1171 9.76567 79.8028 10.0121C76.0345 10.7206 72.9233 13.267 71.1264 16.6041C67.584 22.6313 66.1054 29.5929 66.2184 36.534Z" fill="url(#paint4_linear_165_46)"/>
<path d="M59.0207 36.9754C57.2444 35.4044 55.8685 33.4433 54.6158 31.4308C53.5377 29.9933 53.2912 28.2272 53.8457 26.5228C54.8006 22.7647 56.6591 19.3147 58.497 15.9058C58.9386 15.0844 59.4314 14.2116 60.2631 13.7701C61.1975 13.2772 62.3372 13.4518 63.3743 13.6366C65.1814 13.9549 67.1118 14.3451 68.4055 15.6491C69.8944 17.446 70.9622 19.6536 71.7426 21.8509C72.564 25.075 72.5743 28.6277 72.0917 31.9134C71.3832 34.9013 69.0421 37.1294 66.7113 38.9674C64.3292 40.8361 61.0127 38.7415 59.031 36.9857L59.0207 36.9754Z" fill="url(#paint5_linear_165_46)"/>
<path d="M51.515 18.2264C48.64 17.2612 43.1467 15.454 41.5244 19.0067C44.461 20.0335 45.4467 23.3603 46.2579 26.071C47.5311 30.1268 49.5128 34.3161 53.24 36.3491C55.3655 37.4683 57.7784 37.9304 60.0682 38.6594C60.7766 38.8648 61.6186 39.0393 62.1731 38.5567C64.0521 35.9795 63.1177 32.3344 61.6699 29.6237C60.2838 27.0773 58.3124 24.9005 57.1008 22.2616C56.0226 19.9411 53.8458 19.017 51.5253 18.2366L51.515 18.2264Z" fill="url(#paint6_linear_165_46)"/>
<path d="M91.0154 119.375H41.2574C38.9985 119.375 29.3467 73.3441 29.3467 70.3254V59.4825C29.3467 56.4638 31.1846 54.0098 33.4436 54.0098H98.0694C100.328 54.0098 102.166 56.4638 102.166 59.4825V70.3254C102.166 73.3441 93.2744 119.375 91.0154 119.375Z" fill="#A57E68"/>
<mask id="mask0_165_46" style="mask-type:luminance" maskUnits="userSpaceOnUse" x="29" y="54" width="74" height="66">
<path d="M91.0154 119.375H41.2574C38.9985 119.375 29.3467 73.3441 29.3467 70.3254V59.4825C29.3467 56.4638 31.1846 54.0098 33.4436 54.0098H98.0694C100.328 54.0098 102.166 56.4638 102.166 59.4825V70.3254C102.166 73.3441 93.2744 119.375 91.0154 119.375Z" fill="white"/>
</mask>
<g mask="url(#mask0_165_46)">
<path d="M106.941 58.2916H24.6548V75.4389H106.941V58.2916Z" fill="#846353"/>
</g>
<path d="M103.728 51.8638H27.7865C25.6486 51.8638 23.9155 53.5969 23.9155 55.7347V66.67C23.9155 68.8079 25.6486 70.541 27.7865 70.541H103.728C105.865 70.541 107.599 68.8079 107.599 66.67V55.7347C107.599 53.5969 105.865 51.8638 103.728 51.8638Z" fill="#A57E68"/>
</g>
</g>
<defs>
<filter id="filter0_d_165_46" x="13.6477" y="-4.27726" width="104.219" height="133.92" filterUnits="userSpaceOnUse" color-interpolation-filters="sRGB">
<feFlood flood-opacity="0" result="BackgroundImageFix"/>
<feColorMatrix in="SourceAlpha" type="matrix" values="0 0 0 0 0 0 0 0 0 0 0 0 0 0 0 0 0 0 127 0" result="hardAlpha"/>
<feOffset/>
<feGaussianBlur stdDeviation="5.13393"/>
<feColorMatrix type="matrix" values="0 0 0 0 0.384314 0 0 0 0 0.537255 0 0 0 0 0.427451 0 0 0 0.5 0"/>
<feBlend mode="normal" in2="BackgroundImageFix" result="effect1_dropShadow_165_46"/>
<feBlend mode="normal" in="SourceGraphic" in2="effect1_dropShadow_165_46" result="shape"/>
</filter>
<linearGradient id="paint0_linear_165_46" x1="63.1677" y1="55.4851" x2="65.901" y2="37.8293" gradientUnits="userSpaceOnUse">
<stop stop-color="#92CB4F"/>
<stop offset="0.22" stop-color="#A1D15F"/>
<stop offset="1" stop-color="#D4E697"/>
</linearGradient>
<linearGradient id="paint1_linear_165_46" x1="50.5709" y1="65.4483" x2="50.5709" y2="38.7929" gradientUnits="userSpaceOnUse">
<stop stop-color="#92CB4F"/>
<stop offset="0.22" stop-color="#A1D15F"/>
<stop offset="1" stop-color="#D4E697"/>
</linearGradient>
<linearGradient id="paint2_linear_165_46" x1="75.4585" y1="59.2393" x2="85.5363" y2="35.4745" gradientUnits="userSpaceOnUse">
<stop stop-color="#92CB4F"/>
<stop offset="0.22" stop-color="#A1D15F"/>
<stop offset="1" stop-color="#D4E697"/>
</linearGradient>
<linearGradient id="paint3_linear_165_46" x1="63.742" y1="23.3939" x2="61.1288" y2="-7.54497" gradientUnits="userSpaceOnUse">
<stop offset="0.38" stop-color="#98E6F5"/>
<stop offset="0.57" stop-color="#9AE6F5"/>
<stop offset="0.7" stop-color="#A3E8F5"/>
<stop offset="0.81" stop-color="#B2EBF7"/>
<stop offset="0.91" stop-color="#C7EFF8"/>
<stop offset="1" stop-color="#E2F5FB"/>
</linearGradient>
<linearGradient id="paint4_linear_165_46" x1="62.7148" y1="30.3605" x2="86.8982" y2="17.038" gradientUnits="userSpaceOnUse">
<stop stop-color="#9CE6F5"/>
<stop offset="0.32" stop-color="#7CD2E4"/>
<stop offset="0.53" stop-color="#A7E8F5"/>
<stop offset="0.71" stop-color="#B6EBF7"/>
<stop offset="0.87" stop-color="#CBF0F9"/>
<stop offset="1" stop-color="#E2F5FB"/>
</linearGradient>
<linearGradient id="paint5_linear_165_46" x1="54.5005" y1="31.3453" x2="72.0378" y2="21.6842" gradientUnits="userSpaceOnUse">
<stop stop-color="#5DC9DF"/>
<stop offset="0.32" stop-color="#72D9EE"/>
<stop offset="0.53" stop-color="#A7E8F5"/>
<stop offset="0.71" stop-color="#B6EBF7"/>
<stop offset="0.9999" stop-color="#CBF0F9"/>
<stop offset="1" stop-color="#E2F5FB"/>
</linearGradient>
<linearGradient id="paint6_linear_165_46" x1="47.9032" y1="30.5838" x2="58.8662" y2="24.5444" gradientUnits="userSpaceOnUse">
<stop stop-color="#9CE6F5"/>
<stop stop-color="#72DBF0"/>
<stop offset="0.53" stop-color="#A7E8F5"/>
<stop offset="0.71" stop-color="#B6EBF7"/>
<stop offset="0.87" stop-color="#CBF0F9"/>
<stop offset="1" stop-color="#E2F5FB"/>
</linearGradient>
<clipPath id="clip0_165_46">
<rect width="131" height="131" fill="white"/>
</clipPath>
</defs>
</svg>
