<svg width="131" height="131" viewBox="0 0 131 131" fill="none" xmlns="http://www.w3.org/2000/svg">
<g filter="url(#filter0_d_165_2)">
<path d="M67.5549 16.5186H63.5536C51.6971 16.5186 42.0854 26.1302 42.0854 37.9867V55.727C42.0854 67.5836 51.6971 77.1952 63.5536 77.1952H67.5549C79.4115 77.1952 89.0231 67.5836 89.0231 55.727V37.9867C89.0231 26.1302 79.4115 16.5186 67.5549 16.5186Z" fill="url(#paint0_linear_165_2)"/>
<path d="M43.7892 46.8489H38.092C37.7683 46.8489 37.5059 47.1113 37.5059 47.435V47.9821C37.5059 48.3058 37.7683 48.5682 38.092 48.5682H43.7892C44.1129 48.5682 44.3754 48.3058 44.3754 47.9821V47.435C44.3754 47.1113 44.1129 46.8489 43.7892 46.8489Z" fill="#3E4D22"/>
<path d="M93.0172 41.1283H87.32C86.9963 41.1283 86.7339 41.3907 86.7339 41.7144V42.2615C86.7339 42.5852 86.9963 42.8476 87.32 42.8476H93.0172C93.341 42.8476 93.6034 42.5852 93.6034 42.2615V41.7144C93.6034 41.3907 93.341 41.1283 93.0172 41.1283Z" fill="#3E4D22"/>
<path d="M43.915 43.3989L38.4513 41.7846C38.1408 41.6929 37.8148 41.8702 37.7231 42.1806L37.5681 42.7053C37.4764 43.0157 37.6537 43.3417 37.9641 43.4335L43.4279 45.0478C43.7383 45.1395 44.0643 44.9622 44.156 44.6517L44.3111 44.1271C44.4028 43.8166 44.2255 43.4906 43.915 43.3989Z" fill="#3E4D22"/>
<path d="M54.5596 20.2716L51.711 15.3377C51.5492 15.0573 51.1907 14.9613 50.9104 15.1231L50.4366 15.3967C50.1563 15.5585 50.0602 15.917 50.2221 16.1973L53.0707 21.1313C53.2325 21.4116 53.591 21.5077 53.8713 21.3458L54.3451 21.0723C54.6255 20.9104 54.7215 20.552 54.5596 20.2716Z" fill="#3E4D22"/>
<path d="M83.079 25.56L86.279 22.0898C86.4604 21.8931 86.4479 21.5866 86.2512 21.4052L85.918 21.0979C85.7213 20.9165 85.4147 20.9289 85.2333 21.1256L82.0334 24.5958C81.852 24.7925 81.8644 25.0991 82.0611 25.2805L82.3943 25.5878C82.5911 25.7692 82.8976 25.7567 83.079 25.56Z" fill="#3E4D22"/>
<path d="M84.6259 28.2751L89.0812 26.7157C89.3338 26.6273 89.4669 26.3509 89.3785 26.0983L89.2288 25.6705C89.1404 25.4179 88.8639 25.2848 88.6114 25.3732L84.156 26.9326C83.9035 27.021 83.7704 27.2974 83.8588 27.55L84.0085 27.9778C84.0969 28.2304 84.3733 28.3635 84.6259 28.2751Z" fill="#3E4D22"/>
<path opacity="0.17" d="M62.1238 23.9585C62.1238 23.9585 50.6746 29.6792 56.4031 61.7368" stroke="#3E4D22" stroke-width="0.781513" stroke-miterlimit="10" stroke-linecap="round"/>
<path opacity="0.17" d="M70.1108 23.9585C70.1108 23.9585 81.5834 29.6792 75.855 61.7368" stroke="#3E4D22" stroke-width="0.781513" stroke-miterlimit="10" stroke-linecap="round"/>
<path d="M89.3988 117.412H42.7035C40.5777 117.412 31.5278 74.2096 31.5278 71.3805V61.2052C31.5278 58.3683 33.2472 56.0707 35.3729 56.0707H96.0339C98.1596 56.0707 99.8789 58.3683 99.8789 61.2052V71.3805C99.8789 74.2174 91.5324 117.412 89.4145 117.412H89.3988Z" fill="#A57E68"/>
<mask id="mask0_165_2" style="mask-type:luminance" maskUnits="userSpaceOnUse" x="31" y="56" width="69" height="62">
<path d="M89.3988 117.412H42.7035C40.5777 117.412 31.5278 74.2096 31.5278 71.3805V61.2052C31.5278 58.3683 33.2472 56.0707 35.3729 56.0707H96.0339C98.1596 56.0707 99.8789 58.3683 99.8789 61.2052V71.3805C99.8789 74.2174 91.5324 117.412 89.4145 117.412H89.3988Z" fill="white"/>
</mask>
<g mask="url(#mask0_165_2)">
<path d="M104.357 60.0876H27.1201V76.179H104.357V60.0876Z" fill="#846353"/>
</g>
<path d="M102.02 54.0544H29.3706C27.7434 54.0544 26.4243 55.3735 26.4243 57.0007V68.6453C26.4243 70.2725 27.7434 71.5916 29.3706 71.5916H102.02C103.647 71.5916 104.966 70.2725 104.966 68.6453V57.0007C104.966 55.3735 103.647 54.0544 102.02 54.0544Z" fill="#A57E68"/>
</g>
<defs>
<filter id="filter0_d_165_2" x="21.7352" y="10.3555" width="87.9201" height="111.745" filterUnits="userSpaceOnUse" color-interpolation-filters="sRGB">
<feFlood flood-opacity="0" result="BackgroundImageFix"/>
<feColorMatrix in="SourceAlpha" type="matrix" values="0 0 0 0 0 0 0 0 0 0 0 0 0 0 0 0 0 0 127 0" result="hardAlpha"/>
<feOffset/>
<feGaussianBlur stdDeviation="2.34454"/>
<feColorMatrix type="matrix" values="0 0 0 0 0.262745 0 0 0 0 0.356863 0 0 0 0 0.282353 0 0 0 0.5 0"/>
<feBlend mode="normal" in2="BackgroundImageFix" result="effect1_dropShadow_165_2"/>
<feBlend mode="normal" in="SourceGraphic" in2="effect1_dropShadow_165_2" result="shape"/>
</filter>
<linearGradient id="paint0_linear_165_2" x1="65.5543" y1="74.4912" x2="65.5543" y2="20.9654" gradientUnits="userSpaceOnUse">
<stop stop-color="#92CB4F"/>
<stop offset="0.22" stop-color="#A1D15F"/>
<stop offset="1" stop-color="#D4E697"/>
</linearGradient>
</defs>
</svg>
